<svg width="33" height="33" viewBox="0 0 33 33" fill="none" xmlns="http://www.w3.org/2000/svg">
<g id="behance">
<circle id="bg" cx="16.5" cy="16.5" r="14" fill="#105DFB"/>
<g id="behance_2">
<path fill-rule="evenodd" clip-rule="evenodd" d="M7.37598 22.4592V10.2432H13.0232C14.8372 10.2432 16.3076 11.7136 16.3076 13.5275C16.3076 14.6802 15.9532 15.3942 14.6536 16.1267C16.2088 16.8353 16.6407 17.8174 16.6407 19.1872C16.6407 21.0403 14.9944 22.4592 13.1414 22.4592H7.37598ZM9.76566 12.2653V15.2028H12.5625C12.5625 15.2028 13.9219 15.2028 13.9219 13.7341C13.9219 12.2653 12.5625 12.2653 12.5625 12.2653H9.76566ZM9.76566 20.3903V17.2184H12.7657C13.25 17.2184 14.2657 17.4684 14.2657 18.9684C14.2657 20.0809 13.2657 20.3799 12.7657 20.3903H9.76566Z" fill="white"/>
<path fill-rule="evenodd" clip-rule="evenodd" d="M21.75 13.6091C20.0313 13.6091 17.4844 14.8434 17.4844 18.1247C17.4844 20.1227 18.5782 22.6872 21.8594 22.6872C24.4844 22.6872 25.6927 20.7601 25.9688 19.7966H23.5C23.375 20.2341 22.8907 20.7184 21.8594 20.7184C20.3594 20.7184 19.8282 19.4372 19.75 18.7966H25.9688V18.1247C25.9688 14.8434 23.4688 13.6091 21.75 13.6091ZM21.75 15.4841C20.35 15.4841 19.8334 16.6403 19.75 17.2184H23.5C23.5 16.6403 23.15 15.4841 21.75 15.4841Z" fill="white"/>
<path d="M18.7657 10.9372V12.4528H24.6563V10.9372H18.7657Z" fill="white"/>
</g>
</g>
</svg>
