<svg width="215" height="240" viewBox="0 0 215 240" fill="none" xmlns="http://www.w3.org/2000/svg">
<path id="Ellipse 67" d="M94.5 6.79077C94.5 3.04033 97.543 -0.0200348 101.287 0.192078C119.432 1.21996 137.139 6.35849 153.054 15.2553C170.948 25.2585 185.981 39.6793 196.72 57.1424C207.458 74.6055 213.544 94.5284 214.396 115.011C215.249 135.494 210.839 155.854 201.588 174.149C192.338 192.443 178.554 208.063 161.553 219.518C144.551 230.974 124.898 237.882 104.469 239.585C84.039 241.288 63.5136 237.729 44.8501 229.247C28.2509 221.703 13.6167 210.489 2.03319 196.485C-0.35722 193.595 0.303741 189.33 3.32425 187.107C6.34475 184.884 10.5792 185.546 12.9904 188.418C23.1841 200.563 35.9829 210.299 50.4694 216.882C67.0207 224.405 85.223 227.561 103.34 226.051C121.458 224.54 138.886 218.414 153.964 208.255C169.041 198.096 181.265 184.244 189.468 168.02C197.672 151.796 201.582 133.741 200.826 115.576C200.071 97.4113 194.674 79.7432 185.151 64.2566C175.628 48.77 162.296 35.9813 146.427 27.1102C132.537 19.3458 117.109 14.8091 101.286 13.7981C97.5434 13.559 94.5 10.5412 94.5 6.79077Z" fill="#00008D"/>
</svg>
