<svg width="23" height="18" viewBox="0 0 23 18" fill="none" xmlns="http://www.w3.org/2000/svg">
<g id="gmail">
<path id="Vector" d="M17.5513 2.02344L11.5642 6.69586L5.44019 2.02344V2.0247L5.44758 2.03101V8.57367L11.4951 13.3471L17.5513 8.75804V2.02344Z" fill="#EA4335"/>
<path id="Vector_2" d="M19.1235 0.886385L17.5511 2.02292V8.75752L22.4987 4.95897V2.67074C22.4987 2.67074 21.8981 -0.597424 19.1235 0.886385Z" fill="#FBBC05"/>
<path id="Vector_3" d="M17.5511 8.75754V17.4924H21.3432C21.3432 17.4924 22.4222 17.3813 22.4999 16.1513V4.95898L17.5511 8.75754Z" fill="#34A853"/>
<path id="Vector_4" d="M5.44787 17.4996V8.57272L5.44019 8.56641L5.44787 17.4996Z" fill="#C5221F"/>
<path id="Vector_5" d="M5.44014 2.02453L3.87646 0.894312C1.10179 -0.589498 0.5 2.67741 0.5 2.67741V4.96563L5.44014 8.56718V2.02453Z" fill="#C5221F"/>
<path id="Vector_6" d="M5.44019 2.02441V8.56707L5.44787 8.57338V2.03073L5.44019 2.02441Z" fill="#C5221F"/>
<path id="Vector_7" d="M0.5 4.9668V16.1591C0.576457 17.3904 1.65673 17.5003 1.65673 17.5003H5.44877L5.44013 8.56709L0.5 4.9668Z" fill="#4285F4"/>
</g>
</svg>
