<svg width="33" height="33" viewBox="0 0 33 33" fill="none" xmlns="http://www.w3.org/2000/svg">
<g id="linkedin">
<rect id="bg" x="2.5" y="2.5" width="28" height="28" rx="14" fill="#1275B1"/>
<g id="linked_in">
<path d="M13.1186 10.1921C13.1186 11.1267 12.3085 11.8843 11.3093 11.8843C10.31 11.8843 9.5 11.1267 9.5 10.1921C9.5 9.2576 10.31 8.5 11.3093 8.5C12.3085 8.5 13.1186 9.2576 13.1186 10.1921Z" fill="white"/>
<path d="M9.74742 13.1281H12.8402V22.5H9.74742V13.1281Z" fill="white"/>
<path d="M17.8196 13.1281H14.7268V22.5H17.8196C17.8196 22.5 17.8196 19.5496 17.8196 17.7049C17.8196 16.5976 18.1977 15.4855 19.7062 15.4855C21.411 15.4855 21.4008 16.9345 21.3928 18.0571C21.3824 19.5244 21.4072 21.0219 21.4072 22.5H24.5V17.5537C24.4738 14.3954 23.6508 12.9401 20.9433 12.9401C19.3354 12.9401 18.3387 13.6701 17.8196 14.3305V13.1281Z" fill="white"/>
</g>
</g>
</svg>
