<svg width="170" height="42" viewBox="0 0 170 42" fill="none" xmlns="http://www.w3.org/2000/svg">
<g id="Frame" clip-path="url(#clip0_541_1188)">
<g id="Group">
<g id="Layer 1">
<g id="Group_2">
<g id="Group_3">
<path id="Vector" d="M55.9579 29.8323C54.2541 29.8323 52.7366 29.4435 51.4054 28.666C50.0741 27.8885 49.0304 26.8348 48.2754 25.5035C47.5191 24.1723 47.1416 22.666 47.1416 20.9835C47.1416 19.301 47.5141 17.7248 48.2591 16.3835C49.0041 15.0423 50.0266 13.9935 51.3254 13.2373C52.6241 12.481 54.1154 12.1035 55.7979 12.1035C57.0541 12.1035 58.2041 12.3435 59.2479 12.8223C60.2916 13.301 61.2279 14.0198 62.0591 14.9785C62.3566 15.3198 62.4629 15.671 62.3779 16.0323C62.2929 16.3948 62.0591 16.7135 61.6754 16.991C61.3766 17.2035 61.0466 17.2735 60.6854 17.1985C60.3229 17.1248 59.9929 16.9385 59.6954 16.6398C58.6516 15.5323 57.3529 14.9785 55.7979 14.9785C54.7116 14.9785 53.7529 15.2285 52.9229 15.7298C52.0929 16.2298 51.4429 16.9273 50.9741 17.8223C50.5054 18.716 50.2716 19.771 50.2716 20.9848C50.2716 22.1348 50.5116 23.1573 50.9904 24.051C51.4691 24.9448 52.1354 25.6535 52.9866 26.1748C53.8379 26.6973 54.8279 26.9573 55.9579 26.9573C56.7029 26.9573 57.3579 26.8673 57.9229 26.686C58.4866 26.506 59.0041 26.2235 59.4729 25.8398C59.8129 25.5635 60.1641 25.4085 60.5266 25.376C60.8879 25.3435 61.2079 25.446 61.4854 25.6798C61.8479 25.9785 62.0491 26.3135 62.0929 26.686C62.1354 27.0585 62.0079 27.3948 61.7091 27.6923C60.1754 29.1198 58.2591 29.8323 55.9591 29.8323H55.9579Z" fill="#00008D"/>
<path id="Vector_2" d="M73.2717 29.8335C71.7167 29.8335 70.3217 29.4448 69.0867 28.6673C67.8517 27.8898 66.8767 26.836 66.1642 25.5048C65.4505 24.1735 65.0942 22.6673 65.0942 20.9848C65.0942 19.3023 65.483 17.7898 66.2605 16.4485C67.038 15.1073 68.0917 14.0473 69.423 13.2698C70.753 12.4923 72.2505 12.1035 73.9117 12.1035C75.573 12.1035 77.063 12.4923 78.3842 13.2698C79.7042 14.0473 80.753 15.106 81.5305 16.4485C82.308 17.7898 82.6967 19.3023 82.6967 20.9848H81.4505C81.4505 22.6673 81.0942 24.1735 80.3805 25.5048C79.6667 26.836 78.693 27.8898 77.458 28.6673C76.223 29.4448 74.828 29.8335 73.273 29.8335H73.2717ZM73.9105 26.9585C74.9967 26.9585 75.9655 26.6985 76.818 26.176C77.6692 25.6548 78.3405 24.941 78.8305 24.036C79.3205 23.131 79.5655 22.1148 79.5655 20.986C79.5655 19.8573 79.3205 18.8085 78.8305 17.9035C78.3405 16.9985 77.6692 16.2848 76.818 15.7635C75.9655 15.2423 74.9967 14.981 73.9105 14.981C72.8242 14.981 71.8817 15.2423 71.0192 15.7635C70.1567 16.286 69.4755 16.9985 68.9742 17.9035C68.4742 18.8085 68.2242 19.836 68.2242 20.986C68.2242 22.136 68.4742 23.1323 68.9742 24.036C69.4742 24.941 70.1567 25.6548 71.0192 26.176C71.8817 26.6985 72.8455 26.9585 73.9105 26.9585ZM81.0655 29.7373C80.5967 29.7373 80.208 29.5835 79.8992 29.2748C79.5905 28.966 79.4355 28.5773 79.4355 28.1085V23.221L80.043 19.8348L82.6942 20.9848V28.1085C82.6942 28.5773 82.5392 28.966 82.2317 29.2748C81.923 29.5835 81.5342 29.7373 81.0655 29.7373Z" fill="#00008D"/>
<path id="Vector_3" d="M87.9342 29.738C87.4655 29.738 87.0767 29.5842 86.768 29.2755C86.4592 28.9667 86.3042 28.578 86.3042 28.1092V13.893C86.3042 13.403 86.458 13.0092 86.768 12.7117C87.0767 12.4142 87.4655 12.2642 87.9342 12.2642C88.403 12.2642 88.8179 12.4142 89.1167 12.7117C89.4142 13.0105 89.5642 13.4042 89.5642 13.893V28.1092C89.5642 28.578 89.4154 28.9667 89.1167 29.2755C88.8179 29.5842 88.4242 29.738 87.9342 29.738ZM98.6042 29.738C98.1355 29.738 97.7467 29.5842 97.438 29.2755C97.1292 28.9667 96.9754 28.578 96.9754 28.1092V18.973C96.9754 17.6317 96.6455 16.6367 95.9855 15.9867C95.3255 15.3367 94.4629 15.013 93.3979 15.013C92.3329 15.013 91.3742 15.3967 90.6505 16.163C89.9267 16.9292 89.5642 17.9092 89.5642 19.1017H87.5517C87.5517 17.718 87.8279 16.498 88.3829 15.4442C88.9367 14.3905 89.703 13.5655 90.683 12.968C91.663 12.3717 92.7805 12.0742 94.0367 12.0742C95.293 12.0742 96.3255 12.3405 97.263 12.873C98.1992 13.4055 98.9292 14.188 99.4517 15.2205C99.9729 16.253 100.234 17.5042 100.234 18.9742V28.1105C100.234 28.5792 100.085 28.968 99.7867 29.2767C99.488 29.5855 99.0942 29.7392 98.6042 29.7392V29.738ZM109.242 29.738C108.773 29.738 108.384 29.5842 108.075 29.2755C107.767 28.9667 107.612 28.578 107.612 28.1092V18.973C107.612 17.6317 107.282 16.6367 106.622 15.9867C105.962 15.3367 105.099 15.013 104.034 15.013C102.969 15.013 102.017 15.3967 101.303 16.163C100.589 16.9292 100.233 17.9092 100.233 19.1017H97.5817C97.5817 17.718 97.8792 16.498 98.4767 15.4442C99.0729 14.3905 99.9092 13.5655 100.984 12.968C102.059 12.3717 103.289 12.0742 104.674 12.0742C105.888 12.0742 106.963 12.3405 107.9 12.873C108.838 13.4055 109.567 14.188 110.089 15.2205C110.61 16.253 110.872 17.5042 110.872 18.9742V28.1105C110.872 28.5792 110.723 28.968 110.424 29.2767C110.125 29.5855 109.732 29.7392 109.242 29.7392V29.738Z" fill="#00008D"/>
<path id="Vector_4" d="M116.653 37.1798C116.184 37.1798 115.795 37.0248 115.487 36.7173C115.178 36.4085 115.023 36.0198 115.023 35.551V20.9848C115.044 19.3023 115.438 17.7898 116.205 16.4485C116.972 15.1073 118.015 14.0473 119.335 13.2698C120.655 12.4923 122.147 12.1035 123.808 12.1035C125.469 12.1035 126.992 12.4923 128.312 13.2698C129.632 14.0473 130.68 15.106 131.458 16.4485C132.235 17.7898 132.624 19.3023 132.624 20.9848C132.624 22.6673 132.267 24.1735 131.554 25.5048C130.84 26.836 129.867 27.8898 128.632 28.6673C127.397 29.4448 126.002 29.8335 124.447 29.8335C123.189 29.8335 122.035 29.5735 120.98 29.051C119.927 28.5298 119.027 27.821 118.282 26.9273V35.5523C118.282 36.021 118.133 36.4098 117.834 36.7185C117.535 37.0273 117.142 37.181 116.652 37.181L116.653 37.1798ZM123.809 26.9573C124.895 26.9573 125.864 26.6973 126.717 26.1748C127.568 25.6535 128.244 24.9398 128.745 24.0348C129.245 23.1298 129.497 22.1135 129.497 20.9848C129.497 19.856 129.247 18.8073 128.745 17.9023C128.245 16.9973 127.569 16.2835 126.717 15.7623C125.865 15.241 124.895 14.9798 123.809 14.9798C122.723 14.9798 121.78 15.241 120.918 15.7623C120.055 16.2848 119.379 16.9973 118.889 17.9023C118.399 18.8073 118.154 19.8348 118.154 20.9848C118.154 22.1348 118.399 23.131 118.889 24.0348C119.379 24.9398 120.055 25.6535 120.918 26.1748C121.78 26.6973 122.744 26.9573 123.809 26.9573Z" fill="#00008D"/>
<path id="Vector_5" d="M143.582 29.8662C142.113 29.8662 140.797 29.5524 139.637 28.9237C138.476 28.2962 137.561 27.3749 136.889 26.1612C136.218 24.9474 135.883 23.4562 135.883 21.6887V13.8299C135.883 13.3624 136.037 12.9724 136.346 12.6637C136.654 12.3549 137.043 12.2012 137.512 12.2012C137.981 12.2012 138.368 12.3562 138.678 12.6637C138.987 12.9724 139.142 13.3612 139.142 13.8299V21.6887C139.142 22.8812 139.366 23.8662 139.813 24.6437C140.261 25.4212 140.867 25.9962 141.634 26.3687C142.401 26.7412 143.263 26.9274 144.222 26.9274C145.181 26.9274 145.952 26.7462 146.666 26.3849C147.379 26.0224 147.948 25.5337 148.374 24.9149C148.799 24.2974 149.013 23.6049 149.013 22.8387H151.026C151.026 24.1599 150.701 25.3524 150.052 26.4174C149.402 27.4824 148.519 28.3237 147.401 28.9412C146.282 29.5587 145.009 29.8674 143.583 29.8674L143.582 29.8662ZM150.642 29.7062C150.173 29.7062 149.784 29.5512 149.476 29.2437C149.167 28.9349 149.013 28.5462 149.013 28.0774V13.8299C149.013 13.3399 149.167 12.9462 149.476 12.6487C149.784 12.3512 150.173 12.2012 150.642 12.2012C151.111 12.2012 151.526 12.3512 151.823 12.6487C152.122 12.9474 152.271 13.3412 152.271 13.8299V28.0774C152.271 28.5462 152.122 28.9349 151.823 29.2437C151.524 29.5524 151.131 29.7062 150.642 29.7062Z" fill="#00008D"/>
<path id="Vector_6" d="M163.132 29.8335C161.64 29.8335 160.262 29.6048 158.995 29.1473C157.728 28.6898 156.743 28.1098 156.04 27.406C155.722 27.066 155.588 26.6773 155.642 26.2398C155.694 25.8035 155.902 25.4473 156.264 25.1698C156.69 24.8298 157.11 24.686 157.525 24.7385C157.94 24.7923 158.297 24.9785 158.595 25.2973C158.957 25.7023 159.538 26.0798 160.335 26.431C161.134 26.7823 162.023 26.9585 163.003 26.9585C164.238 26.9585 165.18 26.756 165.83 26.351C166.479 25.9473 166.815 25.4248 166.837 24.786C166.858 24.1473 166.554 23.5935 165.927 23.1248C165.298 22.6573 164.154 22.2735 162.493 21.9748C160.342 21.5485 158.782 20.9098 157.813 20.0585C156.844 19.2073 156.359 18.1635 156.359 16.9285C156.359 15.8423 156.678 14.9423 157.318 14.2285C157.957 13.5148 158.777 12.9835 159.778 12.631C160.779 12.2798 161.822 12.1035 162.908 12.1035C164.314 12.1035 165.559 12.3273 166.645 12.7748C167.732 13.2223 168.594 13.8398 169.233 14.6273C169.53 14.9685 169.669 15.3248 169.648 15.6973C169.627 16.0698 169.445 16.3835 169.105 16.6398C168.764 16.8748 168.36 16.9485 167.892 16.8635C167.423 16.7785 167.029 16.5873 166.709 16.2885C166.177 15.7773 165.602 15.426 164.984 15.2348C164.367 15.0435 163.653 14.9473 162.844 14.9473C161.907 14.9473 161.114 15.1073 160.464 15.426C159.814 15.7448 159.49 16.2148 159.49 16.831C159.49 17.2148 159.592 17.561 159.794 17.8698C159.997 18.1785 160.395 18.456 160.992 18.6998C161.588 18.9448 162.462 19.1848 163.612 19.4185C165.209 19.7373 166.47 20.1423 167.398 20.6323C168.324 21.1223 168.989 21.6923 169.394 22.341C169.798 22.991 170.002 23.741 170.002 24.5935C170.002 25.5735 169.74 26.4573 169.219 27.2448C168.697 28.0323 167.93 28.661 166.919 29.1298C165.907 29.5985 164.645 29.8323 163.133 29.8323L163.132 29.8335Z" fill="#00008D"/>
</g>
<g id="Group_4">
<path id="Vector_7" d="M31.2754 34.3992C30.7891 38.8279 27.8591 42.2804 24.7041 41.8117C21.6741 41.3604 19.8241 37.5367 20.3391 33.3229V33.3154C20.3754 33.0329 20.4179 32.7504 20.4754 32.4679C21.3166 28.2329 24.2854 25.4854 27.1116 26.0679C28.3066 26.3142 29.3291 27.1304 30.0704 28.3104C30.0841 28.3354 30.0991 28.3567 30.1129 28.3817C31.0641 29.9267 31.5329 32.0804 31.2754 34.3992Z" fill="#EF072F"/>
<path id="Vector_8" d="M17.614 31.3792C17.2165 31.8555 16.709 32.2767 16.1078 32.6355C15.3428 33.0892 14.4115 33.433 13.349 33.6267C8.87402 34.4392 3.92277 32.2705 2.54902 28.8505C1.25027 25.6205 3.72902 22.673 7.89027 22.0855C7.99777 22.068 8.10527 22.053 8.21277 22.043C8.83152 21.9755 9.45402 21.9605 10.0728 22.0005C13.5965 22.2117 16.9378 24.0467 18.1678 26.598C18.9903 28.308 18.729 30.043 17.6128 31.3805L17.614 31.3792Z" fill="#F82548"/>
<path id="Vector_9" d="M11.8116 18.2687C10.9566 19.3737 9.57163 19.6999 8.04163 19.3199C8.01663 19.3162 7.98788 19.3087 7.96288 19.3024C6.43913 18.9162 4.77538 17.8387 3.34788 16.1574C0.510376 12.8237 -0.137124 8.59615 1.76663 6.7349C3.58038 4.9599 7.11163 5.96615 9.77288 8.95615C10.4666 9.73615 11.0466 10.5874 11.4966 11.4599C11.5866 11.6387 11.6716 11.8174 11.7541 11.9962C12.8304 14.3674 12.9454 16.8037 11.8116 18.2674V18.2687Z" fill="#FDEE00"/>
<path id="Vector_10" d="M21.0727 6.47456C21.034 6.63956 20.9865 6.80331 20.9302 6.96081C20.7227 7.59706 20.4077 8.17706 20.014 8.68456C18.784 10.2796 16.7977 11.1321 14.8377 10.6408C14.5402 10.5658 14.2577 10.4658 13.994 10.3371C13.354 10.0333 12.8102 9.58956 12.3877 9.04581C11.3327 7.70831 10.989 5.77581 11.6402 3.90831C12.6015 1.14331 15.389 -0.394187 17.8715 0.324563C20.3152 1.03706 21.7452 3.72331 21.0727 6.47456Z" fill="#FFF45C"/>
<path id="Vector_11" d="M31.3404 14.8817C31.2117 14.8892 31.0754 14.8992 30.9429 14.8992C30.9142 14.9029 30.8892 14.9029 30.8604 14.9029C27.8167 14.9492 24.3529 13.1892 23.0792 10.8567C22.8542 10.4417 22.7104 10.0379 22.6504 9.65793C22.6117 9.40793 22.6042 9.16418 22.6329 8.93168C22.8017 7.49418 24.2354 6.48418 26.4467 6.42793C29.4379 6.35668 32.8542 8.06293 34.2054 10.2842C35.5904 12.5629 34.3667 14.6379 31.3404 14.8817Z" fill="#00008D"/>
<path id="Vector_12" d="M39.3777 29.2721C38.4652 31.4971 35.4752 30.9533 32.6164 28.0808C32.4514 27.9196 32.2914 27.7521 32.1302 27.5733C31.8014 27.2121 31.4902 26.8358 31.2077 26.4496C28.9152 23.3983 27.9589 19.8133 28.9964 18.0283C29.5577 17.0621 30.6064 16.7908 31.8589 17.1346C32.5602 17.3246 33.3289 17.7033 34.1089 18.2646C34.7102 18.6933 35.3177 19.2308 35.9114 19.8596C38.7052 22.8321 40.2939 27.0283 39.3777 29.2721Z" fill="#00008D"/>
<path id="Vector_13" d="M22.5902 22.6054C19.8752 22.1154 16.8627 19.6542 15.9402 17.1854C15.0427 14.7854 16.4915 13.3429 19.1102 13.8979C21.6752 14.4417 24.5052 16.7242 25.499 19.0667C26.5189 21.4704 25.249 23.0879 22.5902 22.6042V22.6054Z" fill="#00008D"/>
<g id="Vector_14" style="mix-blend-mode:multiply" opacity="0.08">
<path d="M20.9302 6.96078C20.7227 7.59703 20.4077 8.17703 20.0139 8.68453C18.7839 10.2795 16.7977 11.132 14.8377 10.6408C14.5402 10.5658 14.2577 10.4658 13.9939 10.337C13.3539 10.0333 12.8102 9.58953 12.3877 9.04578C14.3727 7.66828 16.7877 6.86328 19.3852 6.86328C19.9077 6.86328 20.4227 6.89578 20.9302 6.95953V6.96078Z" fill="#EF072F"/>
</g>
<g id="Vector_15" style="mix-blend-mode:multiply" opacity="0.23">
<path d="M30.9429 14.8975C30.9141 14.9012 30.8891 14.9012 30.8604 14.9012C27.8166 14.9475 24.3529 13.1875 23.0791 10.855C22.8541 10.44 22.7104 10.0362 22.6504 9.65625C26.0916 10.1825 29.0641 12.1388 30.9429 14.8975Z" fill="#EF072F"/>
</g>
<g id="Vector_16" style="mix-blend-mode:multiply" opacity="0.23">
<path d="M34.5354 21.4808C34.5354 23.9096 33.8341 26.1746 32.6179 28.0808C32.4529 27.9196 32.2929 27.7521 32.1316 27.5733C31.8029 27.2121 31.4916 26.8358 31.2091 26.4496C28.9166 23.3983 27.9604 19.8133 28.9979 18.0283C29.5591 17.0621 30.6079 16.7908 31.8604 17.1346C32.5616 17.3246 33.3304 17.7033 34.1104 18.2646C34.3891 19.2908 34.5366 20.3683 34.5366 21.4808H34.5354Z" fill="#EF072F"/>
</g>
<g id="Vector_17" style="mix-blend-mode:multiply" opacity="0.25">
<path d="M30.1129 28.3829C27.8879 31.3629 24.3391 33.2942 20.3391 33.3229V33.3154C20.3754 33.0329 20.4179 32.7504 20.4754 32.4679C21.3166 28.2329 24.2854 25.4854 27.1116 26.0679C28.3066 26.3142 29.3291 27.1304 30.0704 28.3104C30.0841 28.3354 30.0991 28.3567 30.1129 28.3817V28.3829Z" fill="#0A55CC"/>
</g>
<g id="Vector_18" style="mix-blend-mode:multiply" opacity="0.23">
<path d="M11.8115 18.2677C10.9565 19.3727 9.5715 19.699 8.0415 19.319C8.2165 16.2677 9.5015 13.5165 11.4978 11.459C11.5878 11.6377 11.6728 11.8165 11.7553 11.9952C12.8315 14.3665 12.9465 16.8027 11.8128 18.2665L11.8115 18.2677Z" fill="#EF072F"/>
</g>
<g id="Vector_19" style="mix-blend-mode:multiply" opacity="0.17">
<path d="M17.614 31.38C13.7003 29.8025 10.7853 26.275 10.0728 22C13.5965 22.2113 16.9378 24.0462 18.1678 26.5975C18.9903 28.3075 18.729 30.0425 17.6128 31.38H17.614Z" fill="#0A55CC"/>
</g>
</g>
</g>
</g>
</g>
</g>
<defs>
<clipPath id="clip0_541_1188">
<rect width="169.319" height="41.705" fill="white" transform="translate(0.681152 0.148438)"/>
</clipPath>
</defs>
</svg>
