<svg width="24" height="24" viewBox="0 0 24 24" fill="none" xmlns="http://www.w3.org/2000/svg">
<g id="material-symbols:star-rounded">
<path id="Vector" d="M11.9994 17.2723L7.84935 19.7723C7.66602 19.8889 7.47435 19.9389 7.27435 19.9223C7.07435 19.9056 6.89935 19.8389 6.74935 19.7223C6.59935 19.6056 6.48269 19.4599 6.39935 19.2853C6.31602 19.1106 6.29935 18.9146 6.34935 18.6973L7.44935 13.9723L3.77435 10.7973C3.60769 10.6473 3.50369 10.4763 3.46235 10.2843C3.42102 10.0923 3.43335 9.90493 3.49935 9.72227C3.56535 9.5396 3.66535 9.3896 3.79935 9.27227C3.93335 9.15493 4.11669 9.07993 4.34935 9.04727L9.19935 8.62227L11.0744 4.17227C11.1577 3.97227 11.287 3.82227 11.4624 3.72227C11.6377 3.62227 11.8167 3.57227 11.9994 3.57227C12.182 3.57227 12.361 3.62227 12.5364 3.72227C12.7117 3.82227 12.841 3.97227 12.9244 4.17227L14.7994 8.62227L19.6494 9.04727C19.8827 9.0806 20.066 9.1556 20.1994 9.27227C20.3327 9.38893 20.4327 9.53893 20.4994 9.72227C20.566 9.9056 20.5787 10.0933 20.5374 10.2853C20.496 10.4773 20.3917 10.6479 20.2244 10.7973L16.5494 13.9723L17.6494 18.6973C17.6994 18.9139 17.6827 19.1099 17.5994 19.2853C17.516 19.4606 17.3994 19.6063 17.2494 19.7223C17.0994 19.8383 16.9244 19.9049 16.7244 19.9223C16.5244 19.9396 16.3327 19.8896 16.1494 19.7723L11.9994 17.2723Z" fill="#FFCF00"/>
</g>
</svg>
